<?xml version="1.0" encoding="utf-8"?>
<!-- Generator: Adobe Illustrator 16.0.0, SVG Export Plug-In . SVG Version: 6.00 Build 0)  -->
<!DOCTYPE svg PUBLIC "-//W3C//DTD SVG 1.1//EN" "http://www.w3.org/Graphics/SVG/1.1/DTD/svg11.dtd">
<svg version="1.1" id="Layer_1" xmlns="http://www.w3.org/2000/svg" xmlns:xlink="http://www.w3.org/1999/xlink" x="0px" y="0px"
	 width="500px" height="500px" viewBox="0 0 500 500" enable-background="new 0 0 500 500" xml:space="preserve">
<path d="M290.1,226.83c0-6.08-0.09-12.17,0.03-18.26c0.08-4.1-1.229-7.63-5.09-9.09c0,0-21-11.92-32.17-13.55
	c-0.99-0.14-3.04-0.17-4.03,0c-10.75,1.81-31.82,13.31-31.82,13.31c-4.18,1.7-5.49,5.36-5.44,9.82c0.14,11.73,0.14,23.46,0,35.18
	c-0.05,4.55,1.66,7.47,5.82,9.49c9.62,4.659,19.1,9.6,28.59,14.51c3.49,1.8,6.79,1.58,10.2-0.181c9.5-4.899,18.979-9.84,28.56-14.56
	c3.83-1.89,5.45-4.69,5.37-8.85C290.02,238.71,290.1,232.77,290.1,226.83z M248.91,244.78c0,5.94-0.08,11.88,0.03,17.82
	c0.06,3.08-0.9,3.66-3.65,2.25c-8.98-4.619-18.02-9.13-27.07-13.609c-2.53-1.25-3.81-3.01-3.79-5.93c0.08-12.03,0.08-24.06,0-36.09
	c-0.02-3.45,1.27-3.78,4.03-2.31c8.92,4.74,17.86,9.43,26.85,14.04c2.73,1.4,3.74,3.41,3.65,6.45
	C248.79,233.19,248.91,238.99,248.91,244.78z M287.28,245.47c0.01,2.48-0.87,4.28-3.13,5.41c-9.561,4.79-19.12,9.57-28.65,14.42
	c-2.98,1.521-3.64,0.16-3.62-2.54c0.05-6.09,0.01-12.18,0.01-18.27c0-5.79,0.07-11.58-0.029-17.37c-0.04-2.54,0.909-4.13,3.22-5.25
	c9.47-4.62,18.92-9.3,28.31-14.08c3.03-1.54,3.931-0.68,3.91,2.49C287.22,222.01,287.24,233.74,287.28,245.47z"/>
<g id="_x32_CVyNx.tif">
	<g>
		<path fill="#CA45FF" d="M277.09,196.85c-1.762-0.236-4.318-0.169-5.928-0.93c-0.693-0.328-1.827-2.859-1.725-3.589
			c0.207-1.467,2.549-3.528,3.442-4.691c1.398-1.902-0.804-3.523-2.077-4.836c-1.115-1.149-2.832-3.472-4.393-3.964
			c-1.34-0.423-3.467,1.901-4.435,2.634c-0.564,0.427-1.402,1.363-2.151,1.449c-0.671,0.077-1.39-0.584-2.024-0.732
			c-1.931-0.416-1.665-3.324-1.911-4.819c-0.436-2.642-0.352-3.371-2.869-3.371c-2.181,0-4.361,0-6.542,0
			c-2.428,0-2.292,1.719-2.643,3.999c-0.188,1.22,0.1,3.643-1.395,4.091c-0.677,0.2-1.688,0.995-2.415,0.881
			c-1.041-0.163-2.333-1.662-3.142-2.289c-1.296-1.003-2.576-2.595-4.183-1.312c-1.468,1.169-2.84,2.458-4.109,3.841
			c-1.022,1.114-3.021,2.645-1.801,4.219c0.864,1.121,4.286,4.205,3.51,5.7c-0.942,1.746-0.763,2.611-2.947,2.927
			c-1.53,0.221-4.244,0.088-5.526,1.033c-1.061,0.782-1.021,8.03-0.11,8.51c1.703,0.898,3.406,1.796,5.109,2.694
			c0.648,0.342,1.217,0.323,1.891,0.592c0.532,0.213,0.639,0.759,1.146,1.026c3.401,1.786,6.803,3.572,10.204,5.358
			c3.239,1.7,8.64,6.042,12.33,4.795c4.571-1.543,8.969-4.304,13.276-6.434c1.097-0.542,3.08-1.074,3.956-1.952
			c0.661-2.048,1.188-2.608,3.231-3.012c1.835-0.362,3.651-0.459,5.356-1.206c1.427-0.625,0.782-3.142,0.782-4.436
			C279,201.022,279.945,197.273,277.09,196.85C275.3,196.61,277.9,196.97,277.09,196.85z M249.89,211.9
			c-5.146-0.029-9.41-4.336-9.4-9.48c0-5.2,4.358-9.419,9.53-9.4C262.259,193.066,262.137,211.946,249.89,211.9
			C244.68,211.87,255.17,211.92,249.89,211.9z"/>
	</g>
</g>
</svg>
